<svg t="1762240039960" viewBox="0 0 1024 1024" version="1.1"
    xmlns="http://www.w3.org/2000/svg" p-id="1555" width="200" height="200">
    <path
        d="M512 0C229.221434 0 0 229.221434 0 512S229.221434 1024 512 1024 1024 794.778566 1024 512 794.778566 0 512 0zM512 985.358491C250.570868 985.358491 38.641509 773.429132 38.641509 512 38.641509 250.570868 250.570868 38.641509 512 38.641509 773.429132 38.641509 985.358491 250.570868 985.358491 512 985.358491 773.429132 773.429132 985.358491 512 985.358491zM408.788528 516.946113 605.976151 319.758491c3.767547-3.767547 3.767547-9.892226 0-13.659774l-13.659774-13.659774c-3.767547-3.767547-9.892226-3.767547-13.659774 0L360.061585 511.033962c-3.767547 3.767547-3.767547 9.892226 0 13.659774l13.659774 13.659774c1.333132 1.333132 2.994717 2.028679 4.714264 2.415094l209.011925 208.992604c3.728906 3.748226 9.795623 3.748226 13.543849 0l13.543849-13.543849c3.728906-3.728906 3.728906-9.795623 0-13.543849L408.788528 516.946113z"
        p-id="1556"></path>
</svg>