<svg t="1760686307929" class="icon" viewBox="0 0 1024 1024" version="1.1"
    xmlns="http://www.w3.org/2000/svg" p-id="1603" width="200" height="200">
    <path
        d="M685.568 615.936h110.08v110.08h-110.08v-110.08z m-228.352 0h109.568v110.08H457.216v-110.08z m0-160.256h109.568v109.568H457.216V455.68z m228.352 0h110.08v109.568h-110.08V455.68z m237.568-365.568h-82.432V30.72c-1.536-16.384-15.36-29.696-32.256-29.696s-30.72 12.8-32.256 29.696v59.392H246.784V30.72c-1.536-16.384-15.36-29.184-32.256-29.184C198.144 1.536 184.32 14.336 182.272 30.72v59.392H100.864C45.056 90.112 0 135.168 0 190.976v731.136c0 55.296 45.056 100.352 100.864 100.352h822.784c55.296 0 100.864-45.056 100.864-100.864V190.976c-0.512-55.808-45.568-100.864-101.376-100.864zM215.04 245.76c17.92 0 32.256-14.336 32.256-32.256V154.624h529.92v59.392c1.024 17.408 14.848 30.72 32.256 30.72s31.232-13.312 32.256-30.72V154.624h82.432c19.968 0 36.352 16.384 36.352 36.352v128H64v-128c0-19.968 16.384-36.352 36.352-36.352h82.432v59.392c0 17.408 14.336 31.744 32.256 31.744z m744.96 676.352c0 19.968-16.384 36.352-36.352 36.352H100.864c-19.968 0-36.352-16.384-36.352-36.352V382.976h895.488v539.136z m-502.784-146.432h109.568v109.568H457.216v-109.568z m-228.864-160.256h110.08v110.08H228.352v-110.08z m0 160.256h110.08V885.76H228.352v-110.08z m0-320h110.08v110.08H228.352V455.68z"
        p-id="1604"></path>
</svg>