<svg t="1762264124596" class="icon" viewBox="0 0 1024 1024" version="1.1"
    xmlns="http://www.w3.org/2000/svg" p-id="4733" width="200" height="200">
    <path
        d="M853.333333 930.773333h-59.093333a21.333333 21.333333 0 0 1 0-42.666666H853.333333a40.106667 40.106667 0 0 0 36.906667-42.666667v-661.333333a42.666667 42.666667 0 0 0-42.666667-42.666667h-661.333333a42.666667 42.666667 0 0 0-42.666667 42.666667v661.333333a42.666667 42.666667 0 0 0 42.666667 42.666667h388.053333a21.333333 21.333333 0 1 1 0 42.666666H185.386667a85.333333 85.333333 0 0 1-85.333334-85.333333v-661.333333a85.333333 85.333333 0 0 1 85.333334-85.333334h661.333333a85.333333 85.333333 0 0 1 85.333333 85.333334v661.333333a82.773333 82.773333 0 0 1-78.72 85.333333z"
        p-id="4734"></path>
    <path d="M682.24 909.44m-32 0a32 32 0 1 0 64 0 32 32 0 1 0-64 0Z" p-id="4735"></path>
    <path
        d="M217.6 769.493333a108.586667 108.586667 0 0 1 15.573333-35.626666 205.013333 205.013333 0 0 1 47.146667-46.933334A527.146667 527.146667 0 0 1 362.666667 636.586667a22.4 22.4 0 0 0 6.4-5.12 1653.333333 1653.333333 0 0 0 97.28-195.626667 6.826667 6.826667 0 0 0 0-6.4 672.213333 672.213333 0 0 1-24.106667-111.786667 194.346667 194.346667 0 0 1 2.133333-70.186666 40.106667 40.106667 0 0 1 21.333334-29.226667c4.266667-2.133333 8.32-3.2 12.586666-5.333333H490.666667a47.146667 47.146667 0 0 1 37.546666 35.626666 153.386667 153.386667 0 0 1 7.253334 53.333334 370.986667 370.986667 0 0 1-15.573334 112 17.28 17.28 0 0 0 1.066667 12.586666 359.253333 359.253333 0 0 0 57.386667 85.333334 364.586667 364.586667 0 0 0 59.733333 53.333333c1.066667 1.066667 4.266667 2.133333 5.333333 1.066667a669.866667 669.866667 0 0 1 93.013334-7.253334 170.666667 170.666667 0 0 1 56.533333 8.32 52.266667 52.266667 0 0 1 29.226667 25.173334 55.893333 55.893333 0 0 1-13.653334 58.453333 58.026667 58.026667 0 0 1-34.56 9.386667 226.133333 226.133333 0 0 1-69.973333-13.226667 485.973333 485.973333 0 0 1-82.56-35.413333 13.44 13.44 0 0 0-6.4-1.066667c-47.146667 7.253333-93.013333 17.706667-139.093333 29.226667-21.333333 5.333333-43.946667 11.52-64 17.706666-3.2 1.066667-5.333333 2.133333-6.4 5.333334a658.773333 658.773333 0 0 1-59.52 92.16 185.813333 185.813333 0 0 1-54.4 48 166.4 166.4 0 0 1-23.04 8.32H256V810.666667a42.666667 42.666667 0 0 1-37.546667-30.293334z m352.426667-189.226666a399.573333 399.573333 0 0 1-76.373334-91.093334 1177.173333 1177.173333 0 0 1-62.72 128c46.08-14.506667 92.16-26.026667 139.093334-36.48zM490.666667 246.4c-8.32 13.653333-4.053333 81.706667 5.333333 99.413333l1.066667-1.066666c0-1.066667 1.066667-2.986667 1.066666-4.053334a246.186667 246.186667 0 0 0 3.2-54.4 267.093333 267.093333 0 0 0-4.48-30.293333 47.36 47.36 0 0 0-6.186666-9.6z m219.733333 356.693333v2.133334c9.386667 3.2 18.986667 7.466667 28.373333 10.453333a112.213333 112.213333 0 0 0 45.866667 7.466667 60.586667 60.586667 0 0 0 13.653333-3.2V618.666667a182.4 182.4 0 0 0-87.04-15.573334z m-446.72 170.666667v1.066667a208.213333 208.213333 0 0 0 52.266667-60.8 330.453333 330.453333 0 0 0-45.866667 47.146666 77.866667 77.866667 0 0 0-5.546667 11.52z"
        p-id="4736"></path>
</svg>